<mxfile host="app.diagrams.net" modified="2023-08-02T02:54:15.216Z" agent="Mozilla/5.0 (Windows NT 10.0; Win64; x64) AppleWebKit/537.36 (KHTML, like Gecko) Chrome/115.0.0.0 Safari/537.36 Edg/115.0.1901.188" etag="BvB2LlmmT6RolG4ZFLgq" version="21.6.6" type="github">
  <diagram name="第 1 页" id="OGliJOE4tW2DUMZxxRDU">
    <mxGraphModel dx="1379" dy="756" grid="1" gridSize="10" guides="1" tooltips="1" connect="1" arrows="1" fold="1" page="1" pageScale="1" pageWidth="827" pageHeight="1169" math="0" shadow="0">
      <root>
        <mxCell id="0" />
        <mxCell id="1" parent="0" />
        <mxCell id="7R4Kz0LJVm2sexOzA-uK-1" value="Robot" style="shape=umlLifeline;perimeter=lifelinePerimeter;whiteSpace=wrap;html=1;container=1;dropTarget=0;collapsible=0;recursiveResize=0;outlineConnect=0;portConstraint=eastwest;newEdgeStyle={&quot;edgeStyle&quot;:&quot;elbowEdgeStyle&quot;,&quot;elbow&quot;:&quot;vertical&quot;,&quot;curved&quot;:0,&quot;rounded&quot;:0};" parent="1" vertex="1">
          <mxGeometry x="947" y="60" width="100" height="540" as="geometry" />
        </mxCell>
        <mxCell id="7R4Kz0LJVm2sexOzA-uK-2" value="上传文件" style="shape=umlFrame;whiteSpace=wrap;html=1;pointerEvents=0;width=170;height=30;" parent="1" vertex="1">
          <mxGeometry x="10" y="10" width="1260" height="630" as="geometry" />
        </mxCell>
        <mxCell id="7R4Kz0LJVm2sexOzA-uK-3" value="OTA" style="shape=umlLifeline;perimeter=lifelinePerimeter;whiteSpace=wrap;html=1;container=1;dropTarget=0;collapsible=0;recursiveResize=0;outlineConnect=0;portConstraint=eastwest;newEdgeStyle={&quot;edgeStyle&quot;:&quot;elbowEdgeStyle&quot;,&quot;elbow&quot;:&quot;vertical&quot;,&quot;curved&quot;:0,&quot;rounded&quot;:0};" parent="1" vertex="1">
          <mxGeometry x="671" y="60" width="100" height="540" as="geometry" />
        </mxCell>
        <mxCell id="dUjvd-HKNAqpHXVFM26k-44" value="" style="html=1;points=[];perimeter=orthogonalPerimeter;outlineConnect=0;targetShapes=umlLifeline;portConstraint=eastwest;newEdgeStyle={&quot;edgeStyle&quot;:&quot;elbowEdgeStyle&quot;,&quot;elbow&quot;:&quot;vertical&quot;,&quot;curved&quot;:0,&quot;rounded&quot;:0};" parent="7R4Kz0LJVm2sexOzA-uK-3" vertex="1">
          <mxGeometry x="45" y="280" width="10" height="20" as="geometry" />
        </mxCell>
        <mxCell id="7R4Kz0LJVm2sexOzA-uK-14" value="" style="html=1;points=[];perimeter=orthogonalPerimeter;outlineConnect=0;targetShapes=umlLifeline;portConstraint=eastwest;newEdgeStyle={&quot;edgeStyle&quot;:&quot;elbowEdgeStyle&quot;,&quot;elbow&quot;:&quot;vertical&quot;,&quot;curved&quot;:0,&quot;rounded&quot;:0};" parent="7R4Kz0LJVm2sexOzA-uK-3" vertex="1">
          <mxGeometry x="45" y="380" width="10" height="20" as="geometry" />
        </mxCell>
        <mxCell id="7R4Kz0LJVm2sexOzA-uK-4" value="后端" style="shape=umlLifeline;perimeter=lifelinePerimeter;whiteSpace=wrap;html=1;container=1;dropTarget=0;collapsible=0;recursiveResize=0;outlineConnect=0;portConstraint=eastwest;newEdgeStyle={&quot;edgeStyle&quot;:&quot;elbowEdgeStyle&quot;,&quot;elbow&quot;:&quot;vertical&quot;,&quot;curved&quot;:0,&quot;rounded&quot;:0};" parent="1" vertex="1">
          <mxGeometry x="277" y="60" width="100" height="540" as="geometry" />
        </mxCell>
        <mxCell id="7R4Kz0LJVm2sexOzA-uK-35" value="" style="html=1;points=[];perimeter=orthogonalPerimeter;outlineConnect=0;targetShapes=umlLifeline;portConstraint=eastwest;newEdgeStyle={&quot;edgeStyle&quot;:&quot;elbowEdgeStyle&quot;,&quot;elbow&quot;:&quot;vertical&quot;,&quot;curved&quot;:0,&quot;rounded&quot;:0};" parent="7R4Kz0LJVm2sexOzA-uK-4" vertex="1">
          <mxGeometry x="45" y="400" width="10" height="30" as="geometry" />
        </mxCell>
        <mxCell id="dUjvd-HKNAqpHXVFM26k-61" value="" style="html=1;points=[];perimeter=orthogonalPerimeter;outlineConnect=0;targetShapes=umlLifeline;portConstraint=eastwest;newEdgeStyle={&quot;edgeStyle&quot;:&quot;elbowEdgeStyle&quot;,&quot;elbow&quot;:&quot;vertical&quot;,&quot;curved&quot;:0,&quot;rounded&quot;:0};" parent="7R4Kz0LJVm2sexOzA-uK-4" vertex="1">
          <mxGeometry x="45" y="170" width="10" height="40" as="geometry" />
        </mxCell>
        <mxCell id="dUjvd-HKNAqpHXVFM26k-40" value="" style="html=1;points=[];perimeter=orthogonalPerimeter;outlineConnect=0;targetShapes=umlLifeline;portConstraint=eastwest;newEdgeStyle={&quot;edgeStyle&quot;:&quot;elbowEdgeStyle&quot;,&quot;elbow&quot;:&quot;vertical&quot;,&quot;curved&quot;:0,&quot;rounded&quot;:0};" parent="7R4Kz0LJVm2sexOzA-uK-4" vertex="1">
          <mxGeometry x="45" y="250" width="10" height="30" as="geometry" />
        </mxCell>
        <mxCell id="7R4Kz0LJVm2sexOzA-uK-11" value="" style="html=1;points=[];perimeter=orthogonalPerimeter;outlineConnect=0;targetShapes=umlLifeline;portConstraint=eastwest;newEdgeStyle={&quot;edgeStyle&quot;:&quot;elbowEdgeStyle&quot;,&quot;elbow&quot;:&quot;vertical&quot;,&quot;curved&quot;:0,&quot;rounded&quot;:0};" parent="1" vertex="1">
          <mxGeometry x="992" y="360" width="10" height="80" as="geometry" />
        </mxCell>
        <mxCell id="7R4Kz0LJVm2sexOzA-uK-12" value="5 HTTP发送上传指令" style="html=1;verticalAlign=bottom;endArrow=block;edgeStyle=elbowEdgeStyle;elbow=vertical;curved=0;rounded=0;startArrow=none;" parent="1" target="7R4Kz0LJVm2sexOzA-uK-3" edge="1">
          <mxGeometry x="-0.0902" relative="1" as="geometry">
            <mxPoint x="330" y="340" as="sourcePoint" />
            <Array as="points">
              <mxPoint x="561" y="340" />
              <mxPoint x="531" y="330" />
              <mxPoint x="401" y="350" />
              <mxPoint x="361" y="350" />
              <mxPoint x="401" y="320" />
              <mxPoint x="571" y="310" />
            </Array>
            <mxPoint as="offset" />
            <mxPoint x="596" y="340" as="targetPoint" />
          </mxGeometry>
        </mxCell>
        <mxCell id="7R4Kz0LJVm2sexOzA-uK-13" value="9 http上报文件上传结果" style="html=1;verticalAlign=bottom;endArrow=open;dashed=1;endSize=8;edgeStyle=elbowEdgeStyle;elbow=vertical;curved=0;rounded=0;startArrow=none;" parent="1" edge="1">
          <mxGeometry x="-0.017" y="20" relative="1" as="geometry">
            <mxPoint x="720" y="440" as="targetPoint" />
            <Array as="points">
              <mxPoint x="837" y="440" />
              <mxPoint x="892" y="570" />
              <mxPoint x="852" y="540" />
              <mxPoint x="872" y="550" />
              <mxPoint x="902" y="510" />
            </Array>
            <mxPoint as="offset" />
            <mxPoint x="992" y="440" as="sourcePoint" />
          </mxGeometry>
        </mxCell>
        <mxCell id="7R4Kz0LJVm2sexOzA-uK-15" value="10&amp;nbsp; HTTP通知目文件上传结果" style="html=1;verticalAlign=bottom;endArrow=open;dashed=1;endSize=8;edgeStyle=elbowEdgeStyle;elbow=vertical;curved=0;rounded=0;" parent="1" edge="1">
          <mxGeometry relative="1" as="geometry">
            <mxPoint x="721" y="490" as="sourcePoint" />
            <mxPoint x="326.5" y="460" as="targetPoint" />
            <Array as="points">
              <mxPoint x="580" y="460" />
              <mxPoint x="555" y="520" />
              <mxPoint x="635" y="550" />
              <mxPoint x="545" y="540" />
              <mxPoint x="425" y="530" />
              <mxPoint x="365" y="570" />
              <mxPoint x="565" y="530" />
            </Array>
          </mxGeometry>
        </mxCell>
        <mxCell id="k5PXEWsf904mykeDzKS9-6" value="OSS" style="shape=umlLifeline;perimeter=lifelinePerimeter;whiteSpace=wrap;html=1;container=1;dropTarget=0;collapsible=0;recursiveResize=0;outlineConnect=0;portConstraint=eastwest;newEdgeStyle={&quot;edgeStyle&quot;:&quot;elbowEdgeStyle&quot;,&quot;elbow&quot;:&quot;vertical&quot;,&quot;curved&quot;:0,&quot;rounded&quot;:0};" parent="1" vertex="1">
          <mxGeometry x="1120" y="60" width="100" height="540" as="geometry" />
        </mxCell>
        <mxCell id="dUjvd-HKNAqpHXVFM26k-74" value="" style="html=1;points=[];perimeter=orthogonalPerimeter;outlineConnect=0;targetShapes=umlLifeline;portConstraint=eastwest;newEdgeStyle={&quot;edgeStyle&quot;:&quot;elbowEdgeStyle&quot;,&quot;elbow&quot;:&quot;vertical&quot;,&quot;curved&quot;:0,&quot;rounded&quot;:0};" parent="k5PXEWsf904mykeDzKS9-6" vertex="1">
          <mxGeometry x="45" y="330" width="10" height="30" as="geometry" />
        </mxCell>
        <mxCell id="7LGhaAWBhXVdlIkoiQjn-10" value="" style="html=1;points=[];perimeter=orthogonalPerimeter;outlineConnect=0;targetShapes=umlLifeline;portConstraint=eastwest;newEdgeStyle={&quot;edgeStyle&quot;:&quot;elbowEdgeStyle&quot;,&quot;elbow&quot;:&quot;vertical&quot;,&quot;curved&quot;:0,&quot;rounded&quot;:0};" parent="k5PXEWsf904mykeDzKS9-6" vertex="1">
          <mxGeometry x="45" y="140" width="10" height="90" as="geometry" />
        </mxCell>
        <mxCell id="dUjvd-HKNAqpHXVFM26k-39" value="前端" style="shape=umlLifeline;perimeter=lifelinePerimeter;whiteSpace=wrap;html=1;container=1;dropTarget=0;collapsible=0;recursiveResize=0;outlineConnect=0;portConstraint=eastwest;newEdgeStyle={&quot;edgeStyle&quot;:&quot;elbowEdgeStyle&quot;,&quot;elbow&quot;:&quot;vertical&quot;,&quot;curved&quot;:0,&quot;rounded&quot;:0};" parent="1" vertex="1">
          <mxGeometry x="70" y="60" width="100" height="540" as="geometry" />
        </mxCell>
        <mxCell id="dUjvd-HKNAqpHXVFM26k-41" value="" style="html=1;points=[];perimeter=orthogonalPerimeter;outlineConnect=0;targetShapes=umlLifeline;portConstraint=eastwest;newEdgeStyle={&quot;edgeStyle&quot;:&quot;elbowEdgeStyle&quot;,&quot;elbow&quot;:&quot;vertical&quot;,&quot;curved&quot;:0,&quot;rounded&quot;:0};" parent="dUjvd-HKNAqpHXVFM26k-39" vertex="1">
          <mxGeometry x="45" y="100" width="10" height="160" as="geometry" />
        </mxCell>
        <mxCell id="dUjvd-HKNAqpHXVFM26k-42" value="选择文件" style="html=1;align=left;spacingLeft=2;endArrow=block;rounded=0;edgeStyle=orthogonalEdgeStyle;curved=0;rounded=0;" parent="dUjvd-HKNAqpHXVFM26k-39" source="dUjvd-HKNAqpHXVFM26k-41" target="dUjvd-HKNAqpHXVFM26k-41" edge="1">
          <mxGeometry relative="1" as="geometry">
            <mxPoint x="50" y="110" as="sourcePoint" />
            <Array as="points">
              <mxPoint x="85" y="110" />
              <mxPoint x="85" y="140" />
            </Array>
            <mxPoint as="offset" />
          </mxGeometry>
        </mxCell>
        <mxCell id="rs9oqlC2Odley0dmmfKc-18" value="" style="html=1;points=[];perimeter=orthogonalPerimeter;outlineConnect=0;targetShapes=umlLifeline;portConstraint=eastwest;newEdgeStyle={&quot;edgeStyle&quot;:&quot;elbowEdgeStyle&quot;,&quot;elbow&quot;:&quot;vertical&quot;,&quot;curved&quot;:0,&quot;rounded&quot;:0};" parent="dUjvd-HKNAqpHXVFM26k-39" vertex="1">
          <mxGeometry x="45" y="430" width="10" height="20" as="geometry" />
        </mxCell>
        <mxCell id="dUjvd-HKNAqpHXVFM26k-48" value="" style="endArrow=classic;html=1;rounded=0;" parent="1" edge="1">
          <mxGeometry width="50" height="50" relative="1" as="geometry">
            <mxPoint x="125" y="130" as="sourcePoint" />
            <mxPoint x="326.5000000000002" y="130" as="targetPoint" />
          </mxGeometry>
        </mxCell>
        <mxCell id="dUjvd-HKNAqpHXVFM26k-50" value="建立websocket" style="edgeLabel;html=1;align=center;verticalAlign=middle;resizable=0;points=[];" parent="dUjvd-HKNAqpHXVFM26k-48" vertex="1" connectable="0">
          <mxGeometry x="-0.0306" relative="1" as="geometry">
            <mxPoint y="-10" as="offset" />
          </mxGeometry>
        </mxCell>
        <mxCell id="dUjvd-HKNAqpHXVFM26k-51" value="" style="endArrow=classic;html=1;rounded=0;" parent="1" source="7R4Kz0LJVm2sexOzA-uK-1" target="7R4Kz0LJVm2sexOzA-uK-3" edge="1">
          <mxGeometry width="50" height="50" relative="1" as="geometry">
            <mxPoint x="1000" y="120" as="sourcePoint" />
            <mxPoint x="726" y="120" as="targetPoint" />
            <Array as="points">
              <mxPoint x="880" y="140" />
            </Array>
          </mxGeometry>
        </mxCell>
        <mxCell id="dUjvd-HKNAqpHXVFM26k-52" value="建立TCP连接" style="edgeLabel;html=1;align=center;verticalAlign=middle;resizable=0;points=[];" parent="dUjvd-HKNAqpHXVFM26k-51" vertex="1" connectable="0">
          <mxGeometry x="-0.0306" relative="1" as="geometry">
            <mxPoint y="-10" as="offset" />
          </mxGeometry>
        </mxCell>
        <mxCell id="dUjvd-HKNAqpHXVFM26k-55" value="" style="endArrow=classic;html=1;rounded=0;" parent="1" source="dUjvd-HKNAqpHXVFM26k-41" edge="1">
          <mxGeometry width="50" height="50" relative="1" as="geometry">
            <mxPoint x="130" y="230" as="sourcePoint" />
            <mxPoint x="321.5000000000002" y="230" as="targetPoint" />
          </mxGeometry>
        </mxCell>
        <mxCell id="dUjvd-HKNAqpHXVFM26k-56" value="1. HTTP 上传文件" style="edgeLabel;html=1;align=center;verticalAlign=middle;resizable=0;points=[];" parent="dUjvd-HKNAqpHXVFM26k-55" vertex="1" connectable="0">
          <mxGeometry x="-0.0306" relative="1" as="geometry">
            <mxPoint y="-10" as="offset" />
          </mxGeometry>
        </mxCell>
        <mxCell id="rs9oqlC2Odley0dmmfKc-19" value="11&amp;nbsp; ws通知文件上传结果" style="html=1;verticalAlign=bottom;endArrow=open;dashed=1;endSize=8;edgeStyle=elbowEdgeStyle;elbow=vertical;curved=0;rounded=0;" parent="1" edge="1">
          <mxGeometry relative="1" as="geometry">
            <mxPoint x="326.5" y="490" as="sourcePoint" />
            <mxPoint x="120" y="490" as="targetPoint" />
            <Array as="points">
              <mxPoint x="253" y="490" />
              <mxPoint x="228" y="570" />
              <mxPoint x="308" y="600" />
              <mxPoint x="218" y="590" />
              <mxPoint x="98" y="580" />
              <mxPoint x="38" y="620" />
              <mxPoint x="238" y="580" />
            </Array>
          </mxGeometry>
        </mxCell>
        <mxCell id="7LGhaAWBhXVdlIkoiQjn-1" value="3 响应文件url" style="html=1;verticalAlign=bottom;endArrow=open;dashed=1;endSize=8;edgeStyle=elbowEdgeStyle;elbow=vertical;curved=0;rounded=0;" parent="1" source="dUjvd-HKNAqpHXVFM26k-61" edge="1">
          <mxGeometry relative="1" as="geometry">
            <mxPoint x="120" y="270" as="targetPoint" />
            <Array as="points">
              <mxPoint x="330" y="270" />
              <mxPoint x="382" y="225" />
              <mxPoint x="402" y="235" />
              <mxPoint x="432" y="195" />
            </Array>
            <mxPoint as="offset" />
            <mxPoint x="310" y="270" as="sourcePoint" />
          </mxGeometry>
        </mxCell>
        <mxCell id="7LGhaAWBhXVdlIkoiQjn-3" value="" style="endArrow=classic;html=1;rounded=0;" parent="1" source="dUjvd-HKNAqpHXVFM26k-41" target="dUjvd-HKNAqpHXVFM26k-40" edge="1">
          <mxGeometry width="50" height="50" relative="1" as="geometry">
            <mxPoint x="130" y="310" as="sourcePoint" />
            <mxPoint x="320" y="310" as="targetPoint" />
            <Array as="points">
              <mxPoint x="230" y="310" />
            </Array>
          </mxGeometry>
        </mxCell>
        <mxCell id="7LGhaAWBhXVdlIkoiQjn-4" value="4. ws 发送上传指令" style="edgeLabel;html=1;align=center;verticalAlign=middle;resizable=0;points=[];" parent="7LGhaAWBhXVdlIkoiQjn-3" vertex="1" connectable="0">
          <mxGeometry x="-0.0306" relative="1" as="geometry">
            <mxPoint y="-10" as="offset" />
          </mxGeometry>
        </mxCell>
        <mxCell id="7LGhaAWBhXVdlIkoiQjn-9" value="6 TCP发送文件上传指令" style="html=1;verticalAlign=bottom;endArrow=block;edgeStyle=elbowEdgeStyle;elbow=vertical;curved=0;rounded=0;startArrow=none;" parent="1" edge="1">
          <mxGeometry x="-0.0902" relative="1" as="geometry">
            <mxPoint x="720" y="360" as="sourcePoint" />
            <Array as="points">
              <mxPoint x="951" y="360" />
              <mxPoint x="921" y="350" />
              <mxPoint x="791" y="370" />
              <mxPoint x="751" y="370" />
              <mxPoint x="791" y="340" />
              <mxPoint x="961" y="330" />
            </Array>
            <mxPoint as="offset" />
            <mxPoint x="990" y="360" as="targetPoint" />
          </mxGeometry>
        </mxCell>
        <mxCell id="7LGhaAWBhXVdlIkoiQjn-11" value="" style="endArrow=classic;html=1;rounded=0;" parent="1" target="k5PXEWsf904mykeDzKS9-6" edge="1">
          <mxGeometry width="50" height="50" relative="1" as="geometry">
            <mxPoint x="332" y="240" as="sourcePoint" />
            <mxPoint x="528.5000000000002" y="240" as="targetPoint" />
          </mxGeometry>
        </mxCell>
        <mxCell id="7LGhaAWBhXVdlIkoiQjn-13" value="2 响应文件url" style="html=1;verticalAlign=bottom;endArrow=open;dashed=1;endSize=8;edgeStyle=elbowEdgeStyle;elbow=vertical;curved=0;rounded=0;" parent="1" edge="1">
          <mxGeometry x="0.4925" y="20" relative="1" as="geometry">
            <mxPoint x="330" y="260" as="targetPoint" />
            <Array as="points">
              <mxPoint x="1160" y="260" />
              <mxPoint x="592" y="215" />
              <mxPoint x="612" y="225" />
              <mxPoint x="642" y="185" />
            </Array>
            <mxPoint as="offset" />
            <mxPoint x="532" y="260" as="sourcePoint" />
          </mxGeometry>
        </mxCell>
        <mxCell id="p-092rfMFEDxikWXzcvo-1" value="7下载文件" style="html=1;verticalAlign=bottom;endArrow=block;edgeStyle=elbowEdgeStyle;elbow=horizontal;curved=0;rounded=0;startArrow=none;" parent="1" source="7R4Kz0LJVm2sexOzA-uK-11" edge="1">
          <mxGeometry x="-0.0902" relative="1" as="geometry">
            <mxPoint x="1010" y="400" as="sourcePoint" />
            <Array as="points">
              <mxPoint x="1070" y="390" />
              <mxPoint x="1081" y="410" />
              <mxPoint x="1041" y="410" />
              <mxPoint x="1081" y="380" />
              <mxPoint x="1251" y="370" />
            </Array>
            <mxPoint as="offset" />
            <mxPoint x="1165" y="390" as="targetPoint" />
          </mxGeometry>
        </mxCell>
        <mxCell id="p-092rfMFEDxikWXzcvo-2" value="8. 文件数据" style="html=1;verticalAlign=bottom;endArrow=open;dashed=1;endSize=8;edgeStyle=elbowEdgeStyle;elbow=vertical;curved=0;rounded=0;startArrow=none;" parent="1" target="7R4Kz0LJVm2sexOzA-uK-11" edge="1">
          <mxGeometry x="-0.017" y="20" relative="1" as="geometry">
            <mxPoint x="1010" y="420" as="targetPoint" />
            <Array as="points">
              <mxPoint x="1009.5" y="420" />
              <mxPoint x="1064.5" y="550" />
              <mxPoint x="1024.5" y="520" />
              <mxPoint x="1044.5" y="530" />
              <mxPoint x="1074.5" y="490" />
            </Array>
            <mxPoint as="offset" />
            <mxPoint x="1164.5" y="420" as="sourcePoint" />
          </mxGeometry>
        </mxCell>
      </root>
    </mxGraphModel>
  </diagram>
</mxfile>
